<?xml version="1.0" standalone="no"?><!DOCTYPE svg PUBLIC "-//W3C//DTD SVG 1.1//EN" "http://www.w3.org/Graphics/SVG/1.1/DTD/svg11.dtd"><svg class="icon" width="200px" height="200.00px" viewBox="0 0 1024 1024" version="1.1" xmlns="http://www.w3.org/2000/svg"><path d="M548.93 886.9l-62.97-5.9-68.7-22.57-31.31-65.28-70.27-31.39-0.17-75.17-55.56-38.96 25.72-64.76-40.86-52.9 36.9-44.2-13.85-81.02 54.79-45.16 9.12-77.4 83.6-15.48 64.76-55.56 82.39 30.87 76.63-22.7 50.83 49.45 72.59 9.2 27.09 75.09 60.21 11.18-0.6 79.81 46.78 63.56-44.2 53.93 28.98 87.9-62.78 35.69-9.72 86.52-83.6 25.97-31.99 58.57-75.6-7.56z" fill="#FFDA00" /><path d="M596.12 232.07l-13.1-12.75-45.29 13.41 24.79 9.29zM608.64 853.39l27.96 2.8 2.91-5.32-22.37-2.24z" fill="#FFDA00" /><path d="M752.19 771.65l9.72-86.52 62.78-35.69-28.98-87.9 44.2-53.93-46.78-63.56 0.6-79.81-60.2-11.18-27.1-75.09-72.58-9.2-37.73-36.7-28.5-9.89-29.89 10.55-24.4 7.23 21.73 21.15 72.59 9.2 27.09 75.08 60.2 11.18-0.6 79.82 46.79 63.56-44.21 53.92 28.99 87.9-62.79 35.69-9.72 86.52-83.59 25.98-32 58.57-38.55 25.13 27.35-5.74L561 848.63l47.64 4.76 8.5-4.76 22.37 2.24 29.08-53.25z" fill="#FFAA00" /><path d="M445.08 850.57l29.62-8.36-12.49-1.25s-10.68 6-17.13 9.61z" fill="#FFDA00" /><path d="M496.54 225.89l7.73-79.37c0.93-9.36 6.29-16.3 12.01-15.47s9.62 9.06 8.69 18.42c-0.03 0.42-0.1 0.84-0.13 1.26l-11.34 78.69c-1.11 7.66-5.74 12.82-10.4 11.57-4.44-1.23-7.25-7.83-6.56-15.1z" fill="#333333" /><path d="M337.5 566.4c2.4-4.44 7.69-7.23 13.75-6.53 8.1 0.87 14.5 7.39 14.33 14.64-2.13 68.6 23.39 136.24 69.99 185.81 5.42 5.75 5.01 14.1-0.96 18.48-5.97 4.38-15.35 3.28-20.77-2.46-51.69-54.88-79.98-129.5-77.66-204.7 0.08-2.02 0.53-3.69 1.32-5.24" fill="#FFFFFF" /><path d="M488.06 898.64l-59.25-50.36-76.76 21.67-33.42-69.68-72.9-32.57-0.18-76.49-57.84-40.57 26.55-66.87-42.33-54.8 39.15-46.91-14.05-82.21 56.19-46.32 9.53-80.83 88.33-16.36 67.28-57.72 84.86 31.81 79.1-23.44 52.69 51.26 75.43 9.56 27.23 75.45 62.89 11.68-0.65 85.02 49.5 67.25-45.7 55.74 29.85 90.53L768 690.74l-9.89 88-86.04 26.74-33.27 60.9-79.16-7.93-71.58 40.19z m-54.27-73.18l56.68 48.2 64.79-36.36 72.04 7.21 30.72-56.24 81.16-25.21 9.55-85.05 60.01-34.11-28.12-85.27 42.72-52.12-44.07-59.87 0.56-74.61-57.52-10.68-26.96-74.71-69.74-8.84-48.98-47.64-74.16 21.97-79.92-29.95-62.25 53.4-78.86 14.6-8.71 73.98-53.37 43.99L233 487.96l-34.64 41.51 39.38 50.99-24.88 62.64 53.26 37.36 0.18 73.84 67.64 30.22 29.19 60.88 70.66-19.94z" fill="#333333" /></svg>